<svg xmlns="http://www.w3.org/2000/svg" width="48" height="48" viewBox="0 0 48 48">
  <rect width="48" height="48" rx="11" fill="#0E1A12"/>
  <rect x="1.5" y="1.5" width="45" height="45" rx="9.5" fill="none" stroke="#C8860A" stroke-opacity="0.35" stroke-width="1.5"/>
  <g transform="translate(24 25) scale(0.36) translate(-40 -50)" fill="#C8860A">
    <circle cx="40" cy="14" r="13"/>
    <path d="M 40 27 C 46 27, 60 29, 66 31 C 70 32, 75 34, 76 38 C 77 43, 72 46, 66 45 C 60 44, 54 44, 51 46 C 52 52, 54 60, 54 72 L 54 83 C 54 89, 51 93, 47 93 L 43 93 L 43 68 L 37 68 L 37 93 L 33 93 C 29 93, 26 89, 26 83 L 26 72 C 26 60, 28 52, 29 46 C 26 44, 20 44, 14 45 C 8 46, 3 43, 4 38 C 5 33, 10 32, 14 31 C 20 29, 34 27, 40 27 Z"/>
  </g>
</svg>
